<svg id="gradients" xmlns="http://www.w3.org/2000/svg" viewBox="0 0 342 339.8">
  <style>
    .st0{fill:url(#SVGID_1_);} .st1{fill:url(#SVGID_2_);} .st2{display:none;fill:none;} .st3{fill:url(#SVGID_3_);} .st4{fill:url(#SVGID_4_);} .st5{fill:url(#SVGID_5_);} .st6{fill:url(#SVGID_6_);} .st7{fill:url(#SVGID_7_);} .st8{opacity:0.1;} .st9{fill:#3F4040;} .st10{fill:#231F20;} .st11{fill:url(#SVGID_8_);} .st12{fill:url(#SVGID_9_);} .st13{fill:url(#SVGID_10_);} .st14{fill:url(#SVGID_11_);} .st15{fill:url(#SVGID_12_);} .st16{fill:url(#SVGID_13_);} .st17{fill:url(#SVGID_14_);} .st18{fill:url(#SVGID_15_);} .st19{fill:url(#SVGID_16_);} .st20{fill:none;} .st21{fill:url(#SVGID_17_);} .st22{display:none;} .st23{display:inline;} .st24{display:inline;fill:#383838;} .st25{display:inline;fill:none;}
  </style>
  <linearGradient id="SVGID_1_" gradientUnits="userSpaceOnUse" x1="225.48" y1="115.469" x2="273" y2="115.469">
    <stop offset="0" stop-color="#231F20" stop-opacity=".1"/>
    <stop offset=".045" stop-color="#2F2B2C" stop-opacity=".1"/>
    <stop offset=".399" stop-color="#878585" stop-opacity=".1"/>
    <stop offset=".686" stop-color="#C8C7C7" stop-opacity=".1"/>
    <stop offset=".893" stop-color="#F0EFF0" stop-opacity=".1"/>
    <stop offset="1" stop-color="#FFF" stop-opacity=".1"/>
  </linearGradient>
  <path class="st0" d="M231.6 154.3c32.1 1.6 38.9-21.5 40.9-35.6 2-14-2.3-39-19.8-42.1-.8-.1-1.6.2-1.9 1.1l-.1.2c-1.1 2.7-2.7 5.2-4.7 7.3-1.4 1.4-3.1 2.4-5 3-2.4.8-4.6 2-6.5 3.5-3.7 2.8-6.6 7.1-8.1 11.7-.6 2-.9 4.3-.9 6.5 0 4.5 2.4 8.5 4.2 13.2 2.2 5.7 3 17 1.9 31.2"/>
  <linearGradient id="SVGID_2_" gradientUnits="userSpaceOnUse" x1="116.07" y1="115.469" x2="68.55" y2="115.469">
    <stop offset="0" stop-color="#231F20" stop-opacity=".1"/>
    <stop offset=".045" stop-color="#2F2B2C" stop-opacity=".1"/>
    <stop offset=".399" stop-color="#878585" stop-opacity=".1"/>
    <stop offset=".686" stop-color="#C8C7C7" stop-opacity=".1"/>
    <stop offset=".893" stop-color="#F0EFF0" stop-opacity=".1"/>
    <stop offset="1" stop-color="#FFF" stop-opacity=".1"/>
  </linearGradient>
  <path class="st1" d="M109.9 154.2c-1-14.2-.3-25.4 2-31.2 1.7-4.6 4.2-8.7 4.2-13.2 0-2.2-.4-4.5-.9-6.5-1.4-4.6-4.3-8.8-8.1-11.7-1.9-1.5-4.2-2.7-6.5-3.5-1.9-.6-3.7-1.6-5-3-2-2.1-3.6-4.6-4.7-7.3l-.1-.2c-.3-.9-1.2-1.2-1.9-1.1C71.3 79.7 67 104.7 69 118.7c2 14.1 8.8 37.2 40.9 35.5"/>
  <path class="st2" d="M227.9 118.8c-1.3-3-2.4-5.9-2.4-9 0-2.2.4-4.5.9-6.5 1.4-4.6 4.3-8.8 8.1-11.7 1.9-1.5 4.2-2.7 6.5-3.5 1.9-.6 3.7-1.6 5-3 2-2.1 3.6-4.6 4.7-7.3l.1-.2c.3-.9 1.2-1.2 1.9-1.1 17.5 3.1 21.8 28.1 19.8 42.1-2 14.1-8.8 37.2-40.9 35.6 9.7-4.5 18.3-13.7 21.2-24.8 2.9-10.9.6-22-5.4-30.6-1.3-1.8-3.9-2.5-5.9-1.4-3.6 1.9-6.9 4.4-9.7 7.5-1.8 1.9-2 4.8-.4 6.9 6.3 8.7 8.7 20 5.8 31.1-1 3.9-3.5 8.1-5.5 11.3 1-14.2.3-25.4-2-31.2l-1.8-4.2z"/>
  <g>
    <g>
      <linearGradient id="SVGID_3_" gradientUnits="userSpaceOnUse" x1="252.198" y1="101.172" x2="224.053" y2="149.921">
        <stop offset="0" stop-color="#231F20" stop-opacity="0"/>
        <stop offset=".038" stop-color="#231F20" stop-opacity=".004"/>
        <stop offset="1" stop-color="#231F20" stop-opacity=".1"/>
      </linearGradient>
      <path class="st3" d="M247.4 98.9c6 8.6 8.3 19.7 5.4 30.6-2.9 11.1-11.5 20.4-21.2 24.8 2.1-3.2 4.5-7.4 5.5-11.3 2.9-11.1.5-22.5-5.8-31.1-1.5-2.1-1.3-5 .4-6.9 2.8-3 6.1-5.5 9.7-7.5 2.1-1.1 4.8-.4 6 1.4z"/>
    </g>
  </g>
  <g>
    <linearGradient id="SVGID_4_" gradientUnits="userSpaceOnUse" x1="199.643" y1="191.057" x2="239.24" y2="191.057">
      <stop offset="0" stop-color="#FFF" stop-opacity=".1"/>
      <stop offset=".554" stop-color="#7A7677" stop-opacity=".1"/>
      <stop offset="1" stop-color="#130C0E" stop-opacity=".1"/>
    </linearGradient>
    <path class="st4" d="M222.4 207.9h-2V228H208.5c-2-.2-4-1.1-5.4-2.6-1.7-1.7-2.7-4-2.7-6.4-4-31.7 8.3-68.4 31.1-64.8 4.9 9.5 7.8 20.3 7.8 31.7 0 3.4-.3 6.8-.8 10.1-.7 4.5-1.8 8.8-3.2 12.9-.7 2-1.6 3.8-4.3 3.8-3.1.2-6.4-4.8-8.6-4.8z"/>
  </g>
  <g>
    <g>
      <linearGradient id="SVGID_5_" gradientUnits="userSpaceOnUse" x1="170.765" y1="228.1" x2="170.765" y2="327.95">
        <stop offset="0" stop-color="#FFF" stop-opacity=".1"/>
        <stop offset=".333" stop-color="#B3B1B2" stop-opacity=".1"/>
        <stop offset="1" stop-color="#130C0E" stop-opacity=".1"/>
      </linearGradient>
      <path class="st5" d="M211.7 280.2c0-3.5-2.9-6.4-6.4-6.4s-6.4 2.9-6.4 6.4 2.9 6.4 6.4 6.4 6.4-2.8 6.4-6.4zm-40.9-21.1c14.9-.1 27.2-10.7 30.1-24.7.8-3.6 3.9-6.2 7.6-6.3H220.4v19c0 2.4 1 4.7 2.7 6.4 1.7 1.7 4 2.7 6.4 2.7H234.4c.2.9.5 1.7.8 2.6.6 1.8 1 3.7 1.2 5.6.1.7.1 1.4.1 2.2 0 6.7-2.8 12.7-7.2 16.9-.5.5-.9 1.1-.9 1.8-1.7 12.3-6.6 23.6-13.8 32.9-.4.6-1 1-1.7 1.3-12.9 5.5-27 8.5-41.8 8.6h-.5c-14.8-.1-28.9-3.1-41.8-8.6-.6-.3-1.2-.7-1.7-1.3-7.2-9.3-12.1-20.6-13.8-32.9-.1-.7-.4-1.3-.9-1.8-4.5-4.2-7.2-10.2-7.2-16.9 0-.7 0-1.4.1-2.2.2-1.9.6-3.8 1.2-5.6.3-.8.6-1.7.8-2.6H112.2c2.4 0 4.7-1 6.4-2.7 1.7-1.7 2.7-4 2.7-6.4v-19H133.2c3.7.1 6.8 2.7 7.6 6.3 2.7 14.1 15.1 24.6 30 24.7zm-40.9 21.1c0 3.5 2.9 6.4 6.4 6.4s6.4-2.9 6.4-6.4-2.9-6.4-6.4-6.4-6.4 2.9-6.4 6.4z"/>
    </g>
  </g>
  <g>
    <g>
      <linearGradient id="SVGID_6_" gradientUnits="userSpaceOnUse" x1="220.39" y1="242.15" x2="234.38" y2="242.15">
        <stop offset="0" stop-color="#231F20" stop-opacity=".1"/>
        <stop offset=".045" stop-color="#2F2B2C" stop-opacity=".1"/>
        <stop offset=".399" stop-color="#878585" stop-opacity=".1"/>
        <stop offset=".686" stop-color="#C8C7C7" stop-opacity=".1"/>
        <stop offset=".893" stop-color="#F0EFF0" stop-opacity=".1"/>
        <stop offset="1" stop-color="#FFF" stop-opacity=".1"/>
      </linearGradient>
      <path class="st6" d="M227.4 233.3c.8-.2 1.4-.5 2.2-.9.3.9.9 1.8 1.5 2.5.5.6.5 1.1.6 2 .3 5.6 1 11.1 2 16.4.2.9.4 1.9.7 2.8H229.5c-2.4 0-4.7-1-6.4-2.7-1.7-1.7-2.7-4-2.7-6.4v-19c3.2.3 5.9 2.4 7 5.3z"/>
    </g>
  </g>
  <g>
    <g>
      <linearGradient id="SVGID_7_" gradientUnits="userSpaceOnUse" x1="220.701" y1="123.034" x2="236.95" y2="151.179">
        <stop offset="0" stop-color="#231F20" stop-opacity="0"/>
        <stop offset="1" stop-color="#231F20" stop-opacity=".1"/>
      </linearGradient>
      <path class="st7" d="M219.7 132.6c.2-.2.3-.4.5-.6 4.5-4.1 7.7-11 7.7-13.2.6 1.4 1.2 2.8 1.7 4.2 2.3 5.7 3 17 2 31.2h-.2c-3-5.8-6.9-11.2-11.4-15.9-1.5-1.5-1.6-4-.3-5.7z"/>
    </g>
  </g>
  <g class="st8">
    <g>
      <path class="st9" d="M233.5 222.4c-2.6 1.3-4.4 4-4.4 7.2 0 1 .2 2 .5 2.9-.7.4-1.4.7-2.2.9-1.1-2.9-3.8-5-7-5.2v-.1c3.5-.3 7-3.8 7.6-7.9h.2c2.1 0 3.9.8 5.3 2.2z"/>
    </g>
    <g>
      <path class="st10" d="M233.5 222.4c-2.6 1.3-4.4 4-4.4 7.2 0 1 .2 2 .5 2.9-.7.4-1.4.7-2.2.9-1.1-2.9-3.8-5-7-5.2v-.1c3.5-.3 7-3.8 7.6-7.9h.2c2.1 0 3.9.8 5.3 2.2z"/>
    </g>
  </g>
  <g>
    <g>
      <linearGradient id="SVGID_8_" gradientUnits="userSpaceOnUse" x1="220.39" y1="217.99" x2="228.305" y2="217.99">
        <stop offset="0" stop-color="#231F20" stop-opacity=".1"/>
        <stop offset=".045" stop-color="#2F2B2C" stop-opacity=".1"/>
        <stop offset=".399" stop-color="#878585" stop-opacity=".1"/>
        <stop offset=".686" stop-color="#C8C7C7" stop-opacity=".1"/>
        <stop offset=".893" stop-color="#F0EFF0" stop-opacity=".1"/>
        <stop offset="1" stop-color="#FFF" stop-opacity=".1"/>
      </linearGradient>
      <path class="st11" d="M228.3 214.3c-.4.9-.6 2-.4 3.3.2.9.2 1.7.1 2.6-.6 4.1-4 7.6-7.6 7.9V208h2c2.2-.1 6.2 5.9 5.9 6.3z"/>
    </g>
  </g>
  <g>
    <g>
      <linearGradient id="SVGID_9_" gradientUnits="userSpaceOnUse" x1="170.775" y1="118.55" x2="170.775" y2="259.13">
        <stop offset="0" stop-color="#231F20" stop-opacity=".1"/>
        <stop offset=".183" stop-color="#777575" stop-opacity=".1"/>
        <stop offset=".339" stop-color="#B8B7B7" stop-opacity=".1"/>
        <stop offset=".451" stop-color="#E0DFE0" stop-opacity=".1"/>
        <stop offset=".509" stop-color="#EFEFEF" stop-opacity=".1"/>
        <stop offset=".528" stop-color="#DFDFDF" stop-opacity=".1"/>
        <stop offset=".598" stop-color="#AAA8A8" stop-opacity=".1"/>
        <stop offset=".669" stop-color="#7C7879" stop-opacity=".1"/>
        <stop offset=".739" stop-color="#565152" stop-opacity=".1"/>
        <stop offset=".807" stop-color="#393335" stop-opacity=".1"/>
        <stop offset=".875" stop-color="#241D1F" stop-opacity=".1"/>
        <stop offset=".94" stop-color="#171012" stop-opacity=".1"/>
        <stop offset="1" stop-color="#130C0E" stop-opacity=".1"/>
      </linearGradient>
      <path class="st12" d="M231.5 154.2c-22.8-3.5-35.1 33.2-31.1 64.8 0 2.4 1 4.7 2.7 6.4 1.5 1.5 3.4 2.4 5.4 2.6-3.7.1-6.8 2.7-7.6 6.3-2.9 14-15.3 24.6-30.1 24.7-14.9-.1-27.2-10.7-30.1-24.7-.8-3.6-3.9-6.2-7.6-6.3 2-.2 3.9-1.1 5.4-2.6 1.7-1.7 2.7-4 2.7-6.4 4-31.7-8.3-68.4-31.1-64.8 3-5.8 6.9-11.2 11.4-15.9 1.5-1.6 1.7-4 .4-5.7 11.2-7.4 24.8-12.4 38.7-14.1l-9.2 73.8c-3.9 1.2-6.2 2.8-6.2 4.4 0 1.5 1.9 2.9 5.1 4.1l-3.2 25.9c-.5 4.2-.1 8.4 1.5 12.3 3.7 8.7 12.3 14.7 22.4 14.7 10.5 0 19.3-6.5 22.7-15.8 1.3-3.5 1.6-7.4 1.1-11.1l-3.2-26h.1c3.3-1.1 5.2-2.6 5.2-4.1 0-1.7-2.4-3.3-6.3-4.5l-9.1-73.8c13.8 1.8 27.2 6.7 38.3 14-1.3 1.7-1.1 4.1.4 5.7 4.4 4.9 8.2 10.3 11.3 16.1z"/>
    </g>
  </g>
  <g>
    <radialGradient id="SVGID_10_" cx="205.265" cy="280.22" r="6.393" gradientUnits="userSpaceOnUse">
      <stop offset="0" stop-color="#231F20" stop-opacity="0"/>
      <stop offset=".159" stop-color="#201B1D" stop-opacity=".016"/>
      <stop offset="1" stop-color="#130C0E" stop-opacity=".1"/>
    </radialGradient>
    <ellipse class="st13" cx="205.3" cy="280.2" rx="6.4" ry="6.4"/>
  </g>
  <g class="st8">
    <g>
      <path class="st9" d="M196.8 196.8c0 1.6-1.9 3-5.2 4.1h-.1l-1.1-8.6c4 1.3 6.4 2.8 6.4 4.5z"/>
    </g>
    <g>
      <path class="st10" d="M196.8 196.8c0 1.6-1.9 3-5.2 4.1h-.1l-1.1-8.6c4 1.3 6.4 2.8 6.4 4.5z"/>
    </g>
  </g>
  <g>
    <g>
      <linearGradient id="SVGID_11_" gradientUnits="userSpaceOnUse" x1="170.928" y1="253.8" x2="170.928" y2="49.49">
        <stop offset="0" stop-color="#1E1E21" stop-opacity=".1"/>
        <stop offset="1" stop-color="#FFF" stop-opacity=".1"/>
      </linearGradient>
      <path class="st14" d="M190.5 192.4l1.1 8.6 3.2 26c.5 3.7.2 7.6-1.1 11.1-3.4 9.2-12.2 15.8-22.7 15.8-10.1 0-18.7-6-22.4-14.7-1.6-3.9-2.1-8.1-1.5-12.3l3.2-25.9 1.1-8.5 9.2-73.8 8.4-67.3c.3-2.4 3.7-2.4 4 0l8.4 67.3 9.1 73.7z"/>
    </g>
  </g>
  <g class="st8">
    <g>
      <path class="st9" d="M151.4 192.4l-1.1 8.5c-3.2-1.1-5.1-2.6-5.1-4.1 0-1.7 2.3-3.2 6.2-4.4z"/>
    </g>
    <g>
      <path class="st10" d="M151.4 192.4l-1.1 8.5c-3.2-1.1-5.1-2.6-5.1-4.1 0-1.7 2.3-3.2 6.2-4.4z"/>
    </g>
  </g>
  <g>
    <linearGradient id="SVGID_12_" gradientUnits="userSpaceOnUse" x1="141.907" y1="191.057" x2="102.31" y2="191.057">
      <stop offset="0" stop-color="#FFF" stop-opacity=".1"/>
      <stop offset=".554" stop-color="#7A7677" stop-opacity=".1"/>
      <stop offset="1" stop-color="#130C0E" stop-opacity=".1"/>
    </linearGradient>
    <path class="st15" d="M121.2 207.9h-2c-.7-1.1-5.4 5-8.6 5-2.7 0-3.6-1.9-4.3-3.8-1.5-4.1-2.6-8.5-3.2-12.9-.5-3.3-.8-6.7-.8-10.1 0-11.4 2.8-22.2 7.8-31.7 22.8-3.5 35.1 33.2 31.1 64.8 0 2.4-1 4.7-2.7 6.4-1.5 1.5-3.4 2.4-5.4 2.6H121.2v-20.3z"/>
  </g>
  <g>
    <radialGradient id="SVGID_13_" cx="136.27" cy="280.225" r="6.393" gradientUnits="userSpaceOnUse">
      <stop offset="0" stop-color="#231F20" stop-opacity="0"/>
      <stop offset=".159" stop-color="#201B1D" stop-opacity=".016"/>
      <stop offset="1" stop-color="#130C0E" stop-opacity=".1"/>
    </radialGradient>
    <ellipse class="st16" cx="136.3" cy="280.2" rx="6.4" ry="6.4"/>
  </g>
  <g>
    <g>
      <linearGradient id="SVGID_14_" gradientUnits="userSpaceOnUse" x1="121.575" y1="126.815" x2="102.03" y2="146.36">
        <stop offset="0" stop-color="#231F20" stop-opacity="0"/>
        <stop offset="1" stop-color="#231F20" stop-opacity=".1"/>
      </linearGradient>
      <path class="st17" d="M121.9 132.6c1.3 1.7 1.1 4.1-.4 5.7-4.5 4.7-8.4 10.1-11.4 15.9h-.2c-1-14.2-.3-25.4 2-31.2.5-1.4 1.1-2.8 1.7-4.2 0 2.2 3.2 9.1 7.7 13.2.3.2.4.4.6.6z"/>
    </g>
  </g>
  <g>
    <g>
      <linearGradient id="SVGID_15_" gradientUnits="userSpaceOnUse" x1="121.16" y1="242.15" x2="107.17" y2="242.15">
        <stop offset="0" stop-color="#231F20" stop-opacity=".1"/>
        <stop offset=".045" stop-color="#2F2B2C" stop-opacity=".1"/>
        <stop offset=".399" stop-color="#878585" stop-opacity=".1"/>
        <stop offset=".686" stop-color="#C8C7C7" stop-opacity=".1"/>
        <stop offset=".893" stop-color="#F0EFF0" stop-opacity=".1"/>
        <stop offset="1" stop-color="#FFF" stop-opacity=".1"/>
      </linearGradient>
      <path class="st18" d="M114.2 233.3c1.1-2.9 3.8-5 7-5.2v19c0 2.4-1 4.7-2.7 6.4-1.7 1.7-4 2.7-6.4 2.7H107.2c.3-.9.5-1.9.7-2.8 1.1-5.3 1.7-10.8 2-16.4.1-.9 0-1.4.6-2 .6-.7 1.2-1.6 1.5-2.5.7.4 1.4.6 2.2.8z"/>
    </g>
  </g>
  <g class="st8">
    <g>
      <path class="st9" d="M121.2 228.1c-3.2.2-5.9 2.4-7 5.2-.8-.2-1.4-.5-2.2-.9.3-.9.5-1.8.5-2.9 0-3.1-1.8-5.8-4.4-7.2 1.4-1.4 3.2-2.2 5.4-2.2h.2c.5 4.2 4 7.7 7.5 8z"/>
    </g>
    <g>
      <path class="st10" d="M121.2 228.1c-3.2.2-5.9 2.4-7 5.2-.8-.2-1.4-.5-2.2-.9.3-.9.5-1.8.5-2.9 0-3.1-1.8-5.8-4.4-7.2 1.4-1.4 3.2-2.2 5.4-2.2h.2c.5 4.2 4 7.7 7.5 8z"/>
    </g>
  </g>
  <g>
    <g>
      <linearGradient id="SVGID_16_" gradientUnits="userSpaceOnUse" x1="121.16" y1="217.912" x2="113.249" y2="217.912">
        <stop offset="0" stop-color="#231F20" stop-opacity=".1"/>
        <stop offset=".045" stop-color="#2F2B2C" stop-opacity=".1"/>
        <stop offset=".399" stop-color="#878585" stop-opacity=".1"/>
        <stop offset=".686" stop-color="#C8C7C7" stop-opacity=".1"/>
        <stop offset=".893" stop-color="#F0EFF0" stop-opacity=".1"/>
        <stop offset="1" stop-color="#FFF" stop-opacity=".1"/>
      </linearGradient>
      <path class="st19" d="M119.2 207.9h2V228c-3.5-.3-7-3.8-7.6-7.9-.1-.8-.1-1.7.1-2.6.2-1.3 0-2.4-.4-3.3-.3-.3 5-7.6 5.9-6.3z"/>
    </g>
  </g>
  <path class="st20" d="M113.6 118.8c-.6 1.4-1.2 2.8-1.7 4.2-2.3 5.7-3 17-2 31.2-2.1-3.2-4.5-7.4-5.5-11.3-2.9-11.1-.5-22.5 5.8-31.1 1.5-2.1 1.3-5-.4-6.9-2.8-3-6.1-5.5-9.7-7.5-1.9-1-4.6-.4-5.9 1.4-6 8.6-8.3 19.7-5.4 30.6 2.9 11.1 11.5 20.4 21.2 24.8-32.2 1.7-39-21.4-41-35.5-2-14 2.3-39 19.8-42.1.8-.1 1.6.2 1.9 1.1l.1.2c1.1 2.7 2.7 5.2 4.7 7.3 1.4 1.4 3.2 2.4 5 3 2.4.8 4.6 2 6.5 3.5 3.7 2.8 6.6 7.1 8.1 11.7.6 2 .9 4.3.9 6.5.1 3-1.1 5.9-2.4 8.9z"/>
  <g>
    <g>
      <g>
        <linearGradient id="SVGID_17_" gradientUnits="userSpaceOnUse" x1="89.352" y1="101.172" x2="117.497" y2="149.921">
          <stop offset="0" stop-color="#231F20" stop-opacity="0"/>
          <stop offset=".023" stop-color="#231F20" stop-opacity=".002"/>
          <stop offset="1" stop-color="#231F20" stop-opacity=".1"/>
        </linearGradient>
        <path class="st21" d="M109.7 104.9c1.8 1.9 2 4.8.4 6.9-6.3 8.7-8.7 20-5.8 31.1 1 3.9 3.5 8.1 5.5 11.3-9.7-4.5-18.3-13.7-21.2-24.8-2.9-10.9-.6-22 5.4-30.6 1.3-1.8 3.9-2.5 5.9-1.4 3.7 2 7 4.5 9.8 7.5z"/>
      </g>
    </g>
  </g>
  <g class="st22">
    <g class="st23">
      <path class="st10" d="M231.7 154.7l-.3-.3v-.1c1-14 .3-25.3-2-31v-.1c-.5-1.3-1-2.6-1.6-3.8l-.2-.4c-1.3-3.1-2.4-6-2.4-9 0-2 .3-4.4 1-6.6 1.4-4.7 4.4-9 8.1-11.8 2-1.5 4.2-2.7 6.6-3.5 2.1-.7 3.7-1.7 4.9-3 2-2.1 3.6-4.5 4.7-7.2l.1-.2c.3-.9 1.2-1.4 2.2-1.2 18 3.2 21.9 29.2 20 42.4-3.4 23.8-16.2 35.9-38 35.9-1 0-2 0-3-.1h-.1zm.9-.6h2.1c21.5 0 34.2-11.9 37.5-35.5 1.9-13-2-38.7-19.6-41.8h-.3c-.6 0-1.2.4-1.4.9l-.1.2c-1.1 2.8-2.7 5.2-4.8 7.4-1.3 1.3-3 2.4-5.1 3.1-2.3.8-4.5 2-6.4 3.4-3.6 2.8-6.6 7-8 11.6-.6 2.1-.9 4.5-.9 6.4 0 3 1.1 5.8 2.4 8.9l.1.4c.5 1.2 1.1 2.5 1.6 3.9v.1c2.2 5.6 3 16.7 2 30.3 2.6-4.1 4.2-7.5 5-10.4 2.8-10.7.7-21.9-5.7-30.9-1.6-2.2-1.4-5.2.5-7.2 2.8-3 6.1-5.6 9.8-7.5.6-.3 1.4-.5 2.2-.5 1.6 0 3.2.8 4 2 6.2 9 8.2 20.2 5.4 30.8-2.6 10.2-10.4 19.5-20.3 24.4zm11-56.9c-.7 0-1.4.2-1.9.5-3.6 1.9-6.9 4.4-9.7 7.4-1.7 1.8-1.9 4.6-.4 6.6 6.6 9.1 8.7 20.5 5.8 31.3-.8 3-2.5 6.5-5.1 10.7 9.8-4.8 17.6-14 20.3-24.3 2.8-10.4.8-21.5-5.4-30.4-.8-1.1-2.1-1.8-3.6-1.8z"/>
    </g>
  </g>
  <g class="st22">
    <path class="st24" d="M231.7 154.5l-.2-.3-.1-.1.1-.1c2.9-4.4 4.7-8.1 5.5-11.2 2.8-10.7.7-21.9-5.7-30.9-1.6-2.2-1.4-5.2.5-7.2 2.8-3 6.1-5.6 9.8-7.5.6-.3 1.4-.5 2.2-.5 1.6 0 3.2.8 4 2 6.2 9 8.2 20.2 5.4 30.8-3 10.7-11.1 20.3-21.5 25zm11.9-57.3c-.7 0-1.4.2-1.9.5-3.6 1.9-6.9 4.4-9.7 7.4-1.7 1.8-1.9 4.6-.4 6.6 6.6 9.1 8.7 20.5 5.8 31.3-.8 3-2.5 6.5-5.1 10.7 9.8-4.8 17.6-14 20.3-24.3 2.8-10.4.8-21.5-5.4-30.4-.8-1.1-2.1-1.8-3.6-1.8z"/>
  </g>
  <g class="st22">
    <path class="st24" d="M208.5 228.4c-2.1-.2-4.1-1.2-5.6-2.7-1.8-1.8-2.8-4.1-2.8-6.6-2.8-22.2 2.4-45.9 12.7-57.5 4.6-5.2 9.8-7.8 15.6-7.8 1 0 2 .1 3 .2h.1l.1.1c5.1 9.8 7.8 20.8 7.8 31.9 0 3.3-.3 6.7-.8 10.2-.7 4.4-1.7 8.8-3.2 13-.8 2-1.7 4-4.5 4-.5 0-1 .1-1.4.4l-.3.2-.2-2.9c-.4.1-.8.2-1.2.4l-.3.2-.2-3c-.2 0-.5.1-.8.2l-.3.1-.1-2.8c-1.4.1-2.7.9-3.5 2.1l-.1.1h-1.9v20.1h-12c0 .1-.1.1-.1.1zm20-74.2c-5.7 0-10.8 2.6-15.3 7.6-10.2 11.6-15.4 35.1-12.6 57.2 0 2.4.9 4.6 2.6 6.3 1.4 1.4 3.3 2.3 5.3 2.5H220.1v-20.2h2.1c.9-1.3 2.4-2.2 4.1-2.2h.3l.1 2.6c.3-.1.5-.1.8-.2h.3l.2 2.7c.4-.2.9-.3 1.4-.3h.2l.2 2.7c.4-.2.9-.3 1.3-.3 2.5 0 3.3-1.7 4.1-3.7 1.5-4.2 2.6-8.5 3.2-12.9.5-3.4.8-6.8.8-10.1 0-10.9-2.7-21.8-7.7-31.5-1.1-.1-2.1-.2-3-.2z"/>
  </g>
  <g class="st22">
    <path class="st25" d="M171 328.2h-.5c-14.5-.1-28.6-3-41.9-8.6-.7-.3-1.3-.8-1.8-1.4-7.4-9.5-12.2-20.9-13.9-33-.1-.6-.4-1.2-.9-1.7-4.7-4.4-7.3-10.6-7.3-17.1 0-.7 0-1.4.1-2.2.2-1.9.6-3.8 1.2-5.7.3-.9.6-1.7.8-2.6l.1-.2.3.1h4.8c2.4 0 4.6-.9 6.3-2.6 1.7-1.7 2.6-3.9 2.6-6.3v-19.2H133c3.8.1 7 2.8 7.8 6.5 2.9 14.1 15.5 24.4 29.9 24.5 14.4-.1 27-10.4 29.9-24.5.8-3.8 4-6.4 7.8-6.5H220.5l.1.2v19c0 2.4.9 4.6 2.6 6.3 1.7 1.7 3.9 2.6 6.3 2.6h4.8l.2-.1.1.2c.2.8.5 1.7.8 2.6.7 1.8 1.1 3.7 1.2 5.7v.3c.1.7.1 1.3.1 1.9 0 6.5-2.7 12.7-7.3 17.1-.5.5-.8 1-.9 1.7-1.7 12.1-6.5 23.5-13.9 33-.5.6-1.1 1.1-1.8 1.4-13.2 5.6-27.3 8.5-41.8 8.6zm-63.6-71.8c-.2.8-.5 1.6-.8 2.4-.6 1.8-1 3.7-1.2 5.6-.1.7-.1 1.4-.1 2.1 0 6.3 2.6 12.4 7.2 16.7.6.5.9 1.2 1 2 1.7 12 6.5 23.3 13.8 32.8.4.5.9.9 1.6 1.2 13.2 5.6 27.2 8.5 41.7 8.5h.5c14.5-.1 28.5-2.9 41.7-8.5.6-.3 1.2-.7 1.6-1.2 7.3-9.5 12.1-20.8 13.8-32.8.1-.7.5-1.4 1-2 4.6-4.3 7.2-10.4 7.2-16.7 0-.7 0-1.3-.1-2.1v-.3c-.2-1.8-.6-3.6-1.2-5.3-.3-.8-.6-1.6-.8-2.4h-4.7c-2.5 0-4.8-1-6.6-2.7-1.8-1.8-2.8-4.1-2.8-6.6v-18.7h-11.5-.1c-3.6.1-6.6 2.6-7.3 6.1-3 14.3-15.7 24.8-30.4 24.9-14.6-.1-27.4-10.6-30.4-24.9-.7-3.5-3.7-6-7.3-6.1H121.6v18.7c0 2.5-1 4.8-2.7 6.6-1.8 1.8-4.1 2.8-6.6 2.8h-4.9zm28.9 30.5c-3.7 0-6.6-3-6.6-6.7s3-6.6 6.6-6.6 6.6 3 6.6 6.6c0 3.7-3 6.7-6.6 6.7zm0-12.8c-3.4 0-6.1 2.8-6.1 6.1 0 3.4 2.8 6.2 6.1 6.2s6.1-2.8 6.1-6.2c0-3.4-2.7-6.1-6.1-6.1zm69 12.8c-3.7 0-6.6-3-6.6-6.6 0-3.7 3-6.6 6.6-6.6 3.7 0 6.6 3 6.6 6.6 0 3.6-3 6.6-6.6 6.6zm0-12.8c-3.4 0-6.1 2.8-6.1 6.1s2.8 6.1 6.1 6.1c3.4 0 6.1-2.8 6.1-6.1s-2.7-6.1-6.1-6.1z"/>
  </g>
  <g class="st22">
    <path class="st24" d="M234.4 256.4h-4.9c-2.5 0-4.8-1-6.6-2.7-1.8-1.8-2.8-4.1-2.8-6.6v-19.2h.3c3.2.2 5.9 2.2 7.1 5.1.6-.2 1.2-.4 1.9-.8h.1l.2-.1.1.2c.3.9.8 1.7 1.5 2.4.5.6.6 1.2.6 1.9v.3c.3 5.5 1 11 2 16.4.2 1 .4 1.9.7 2.8l.1.2-.3.1zm-13.8-28v18.7c0 2.4.9 4.6 2.6 6.3 1.7 1.7 3.9 2.6 6.3 2.6h4.6c-.2-.8-.4-1.7-.6-2.6-1.1-5.4-1.7-10.9-2-16.4v-.3c-.1-.7-.1-1.1-.5-1.6-.6-.7-1.1-1.4-1.4-2.3-.7.4-1.3.6-2 .8h-.2l-.1-.2c-1.2-2.8-3.7-4.7-6.7-5z"/>
  </g>
  <g class="st22">
    <path class="st24" d="M231.9 154.5l-.3-.1h-.2l-.1-.1c-3-5.8-6.8-11.1-11.4-15.8-1.6-1.7-1.8-4.2-.4-6 .2-.2.3-.4.6-.6 4.4-3.9 7.6-10.9 7.6-13l.5-.1.1.3c.5 1.2 1.1 2.5 1.6 3.9v.1c2.3 5.8 3 17.2 2 31.2v.2zm-3.8-34.7c-.6 2.9-3.6 8.8-7.7 12.4-.2.2-.4.4-.5.6-1.2 1.6-1.1 3.9.4 5.4 4.4 4.6 8.2 9.8 11.2 15.4 1-13.7.2-24.7-2-30.4v-.1c-.5-1.1-1-2.2-1.4-3.3z"/>
  </g>
  <g class="st22">
    <path class="st24" d="M227.2 233.6l-.1-.2c-1.1-2.9-3.7-4.8-6.8-5h-.2v-.5l.2-.1c3.4-.3 6.8-3.8 7.3-7.6v-.3l.4.1c2.1 0 4 .8 5.5 2.2l.2.2-.3.2c-2.7 1.3-4.3 4-4.3 6.9 0 .9.2 1.9.5 2.8l.1.3-.3.1c-.8.4-1.5.7-2.2.9zm-5.5-5.5c2.6.6 4.8 2.4 5.8 5 .6-.1 1.1-.4 1.7-.7-.3-.9-.5-1.8-.5-2.7 0-3 1.6-5.8 4.3-7.2-1.3-1.2-3-1.9-4.9-1.9-.5 3.4-3.3 6.5-6.4 7.5z"/>
  </g>
  <g class="st22">
    <path class="st24" d="M220.1 228.3v-20.7h2.1c.9-1.3 2.4-2.2 4.1-2.2h.3l.1 2.6c.3-.1.5-.1.8-.2h.3l.2 2.7c.4-.2.9-.3 1.4-.3h.2l.2 3.2-.1.1c-.4.2-.8.6-1 1-.4.9-.6 2-.4 3.1.2.9.2 1.8.1 2.7-.6 4.1-4.1 7.8-7.8 8.1l-.5-.1zm.5-20.1v19.6c3.3-.4 6.5-3.9 7.1-7.6.1-.8.1-1.7 0-2.5-.2-1.3-.1-2.4.4-3.5.3-.5.7-.8 1.1-1.1l-.1-2.4c-.4.1-.8.2-1.2.4l-.3.2-.2-3c-.2 0-.5.1-.8.2l-.3.1-.1-2.8c-1.4.1-2.7.9-3.5 2.1l-.1.1h-2z"/>
  </g>
  <g class="st22">
    <path class="st24" d="M170.8 259.4c-14.6-.1-27.4-10.6-30.4-24.9-.7-3.5-3.7-6-7.3-6.1v-.5c2-.2 3.9-1.1 5.3-2.5 1.7-1.7 2.6-3.9 2.6-6.3 2.8-22.1-2.4-45.6-12.6-57.2-4.5-5.1-9.6-7.6-15.3-7.6-1 0-2 .1-3 .2l-.5.1.2-.4c3-5.8 6.9-11.2 11.5-15.9 1.4-1.5 1.6-3.8.4-5.4l-.2-.2.2-.1c11.3-7.5 24.7-12.4 38.8-14.1h.3v.3l-9.2 74h-.2c-3.9 1.2-6 2.7-6 4.2 0 1.3 1.7 2.7 4.9 3.8h.2v.3l-3.2 25.9c-.5 4.3 0 8.5 1.5 12.1 3.7 8.8 12.4 14.6 22.1 14.6 10.2 0 19-6.1 22.4-15.6 1.2-3.3 1.6-7.1 1.1-11l-3.2-26.2h.3c3.2-1.1 5-2.5 5-3.9 0-1.5-2.2-3-6.2-4.2h-.2v-.2l-9.2-74.1h.3c13.9 1.8 27.2 6.7 38.4 14.1l.2.1-.2.2c-1.2 1.6-1.1 3.9.4 5.4 4.6 4.7 8.4 10.1 11.5 15.9l.2.4-.5-.1c-1-.2-2-.2-3-.2-5.7 0-10.8 2.6-15.3 7.6-10.2 11.6-15.4 35.1-12.6 57.2 0 2.4.9 4.6 2.6 6.3 1.4 1.4 3.3 2.3 5.3 2.5v.5c-3.6.1-6.6 2.6-7.3 6.1-2.7 14.3-15.5 24.8-30.1 24.9zm-36.2-31.3c3.1.7 5.6 3.1 6.2 6.3 2.9 14.1 15.5 24.4 29.9 24.5 14.4-.1 27-10.4 29.9-24.5.7-3.2 3.1-5.7 6.2-6.3-1.5-.4-2.9-1.2-4-2.4-1.8-1.8-2.8-4.1-2.8-6.6-2.8-22.2 2.4-45.9 12.7-57.5 5.2-5.9 11.4-8.5 18.2-7.6-3-5.6-6.7-10.8-11.2-15.4-1.5-1.6-1.7-4-.6-5.8-11-7.3-24-12-37.7-13.8l9.1 73.3c4.2 1.3 6.4 2.9 6.4 4.7 0 1.6-1.8 3.1-5.2 4.3l3.2 25.8c.5 4 .1 7.8-1.1 11.2-3.5 9.7-12.5 15.9-22.9 15.9-9.9 0-18.8-5.8-22.6-14.9-1.6-3.7-2.1-8-1.6-12.4l3.2-25.7c-3.3-1.2-5.1-2.7-5.1-4.3 0-1.7 2.1-3.3 6.2-4.6l9.2-73.4c-13.8 1.8-26.9 6.6-38.1 13.9 1.2 1.8 1 4.2-.6 5.8-4.4 4.6-8.2 9.8-11.2 15.4 6.8-.9 13 1.7 18.2 7.6 10.3 11.7 15.5 35.3 12.7 57.6 0 2.5-1 4.8-2.7 6.6-1 1-2.4 1.8-3.9 2.3z"/>
  </g>
  <g class="st22">
    <path class="st24" d="M205.3 286.9c-3.7 0-6.6-3-6.6-6.6 0-3.7 3-6.6 6.6-6.6 3.7 0 6.6 3 6.6 6.6 0 3.6-3 6.6-6.6 6.6zm0-12.8c-3.4 0-6.1 2.8-6.1 6.1s2.8 6.1 6.1 6.1c3.4 0 6.1-2.8 6.1-6.1s-2.7-6.1-6.1-6.1z"/>
  </g>
  <g class="st22">
    <path class="st24" d="M191.4 201.2l-1.1-9.2.4.1c4.3 1.3 6.5 2.9 6.5 4.7 0 1.6-1.9 3.1-5.4 4.3l-.4.1zm-.6-8.5l1 7.9c3.1-1.1 4.8-2.5 4.8-3.8 0-1.4-2.1-2.9-5.8-4.1z"/>
  </g>
  <g class="st22">
    <path class="st24" d="M171 254c-9.9 0-18.8-5.8-22.6-14.9-1.6-3.7-2.1-8-1.6-12.4l21.9-175.5c.2-1.4 1.3-2 2.2-2 1 0 2.1.6 2.3 2L195 226.9c.5 4 .1 7.8-1.1 11.2-3.5 9.7-12.5 15.9-22.9 15.9zm0-204.3c-.8 0-1.6.5-1.8 1.6l-21.9 175.6c-.5 4.3 0 8.5 1.5 12.1 3.7 8.8 12.4 14.6 22.1 14.6 10.2 0 19-6.1 22.4-15.6 1.2-3.3 1.6-7.1 1.1-11L172.8 51.3c-.2-1.1-1-1.6-1.8-1.6z"/>
  </g>
  <g class="st22">
    <path class="st24" d="M150.5 201.2h-.3c-3.5-1.2-5.3-2.7-5.3-4.3 0-1.8 2.2-3.4 6.4-4.7l.4-.1-1.2 9.1zm.6-8.5c-3.6 1.2-5.6 2.6-5.6 4.1 0 1.3 1.7 2.6 4.7 3.8l.9-7.9z"/>
  </g>
  <g class="st22">
    <path class="st24" d="M133.1 228.4H121v-.2-19.9h-1.6c-2.8 1.4-8.4 5-8.8 5-2.8 0-3.8-2-4.5-4-1.5-4.2-2.6-8.6-3.2-13-.5-3.4-.8-6.8-.8-10.2 0-11.1 2.7-22.1 7.8-31.9l.1-.1h.1c1-.2 2-.2 3-.2 5.8 0 11.1 2.6 15.6 7.8 10.3 11.7 15.5 35.3 12.7 57.6 0 2.5-1 4.8-2.7 6.6-1.5 1.3-3.5 2.2-5.6 2.5zm-11.7-.6H133c2-.2 3.8-1.1 5.3-2.5 1.7-1.7 2.6-3.9 2.6-6.3 2.8-22.1-2.4-45.6-12.6-57.2-5.2-5.9-11.3-8.4-18.1-7.4-5 9.7-7.7 20.6-7.7 31.5 0 3.3.3 6.7.8 10.1.6 4.4 1.7 8.7 3.2 12.9.7 2 1.6 3.7 4.1 3.7.5 0 7.8-4.7 8.7-5h2.1v20.2z"/>
  </g>
  <g class="st22">
    <path class="st24" d="M136.3 286.9c-3.7 0-6.6-3-6.6-6.7s3-6.6 6.6-6.6 6.6 3 6.6 6.6c0 3.7-3 6.7-6.6 6.7zm0-12.8c-3.4 0-6.1 2.8-6.1 6.1 0 3.4 2.8 6.2 6.1 6.2s6.1-2.8 6.1-6.2c0-3.4-2.7-6.1-6.1-6.1z"/>
  </g>
  <g class="st22">
    <path class="st24" d="M109.7 154.5l-.1-.3c-1-14.1-.3-25.5 2-31.3.5-1.4 1.1-2.7 1.6-3.9l.1-.3.5.1c0 2.1 3.2 9.1 7.6 13l.6.6c1.4 1.8 1.2 4.4-.4 6-4.5 4.7-8.4 10-11.4 15.8l-.1.1h-.1-.1l-.2.2zm3.8-34.7c-.5 1.1-.9 2.2-1.4 3.4-2.3 5.7-3 16.8-2 30.4 3-5.6 6.8-10.8 11.2-15.4 1.4-1.5 1.6-3.8.4-5.4-.1-.2-.3-.4-.5-.6-4.1-3.6-7.1-9.5-7.7-12.4z"/>
  </g>
  <g class="st22">
    <path class="st24" d="M112 256.4h-5l-.2-.1.1-.2c.3-.9.5-1.8.7-2.8 1.1-5.4 1.7-10.9 2-16.4v-.3c.1-.8.1-1.3.6-1.9.6-.7 1.1-1.5 1.5-2.4l.1-.2.3.1c.7.4 1.3.7 1.9.8 1.2-2.9 4-5 7.1-5.1h.3v19.2c0 2.5-1 4.8-2.7 6.6-1.8 1.8-4.2 2.7-6.7 2.7zm-4.5-.5h4.6c2.4 0 4.6-.9 6.3-2.6 1.7-1.7 2.6-3.9 2.6-6.3v-18.7c-2.9.3-5.5 2.2-6.5 5l-.1.2h-.2c-.7-.1-1.3-.4-2-.8-.4.8-.8 1.6-1.5 2.3-.4.5-.4.9-.5 1.6v.3c-.3 5.5-1 11-2 16.4-.3.9-.5 1.8-.7 2.6z"/>
  </g>
  <g class="st22">
    <path class="st24" d="M114.3 233.6h-.2c-.7-.2-1.4-.4-2.2-.9l-.2-.1.1-.3c.3-.9.5-1.8.5-2.8 0-3-1.6-5.6-4.3-6.9l-.3-.2.2-.2c1.5-1.5 3.4-2.2 5.5-2.2l.4-.1v.3c.5 3.8 3.9 7.4 7.3 7.6h.2v.5l-.2.1c-3 .2-5.7 2.2-6.8 5v.2zm-2-1.3c.6.3 1.2.6 1.7.7 1-2.5 3.2-4.4 5.8-5-3.1-.9-5.8-4-6.4-7.6-1.9 0-3.6.7-4.9 1.9 2.6 1.5 4.3 4.2 4.3 7.2 0 1-.2 1.9-.5 2.8z"/>
  </g>
  <g class="st22">
    <path class="st24" d="M121.4 228.3h-.3c-3.7-.3-7.2-3.9-7.8-8.1-.1-.9-.1-1.8.1-2.7.2-1.2.1-2.2-.4-3.1-.2-.4-.6-.7-1-.9l-.1-.1.2-2.7h-.4l1.8-2.9h.1c.5 0 .9.1 1.4.2l.1-2.6h.3c1.6.1 3.1.9 4.1 2.2h2.1v20.7zm-9-15.2c.4.3.8.6 1.1 1.1.5 1.1.6 2.2.4 3.5-.2.8-.2 1.7 0 2.5.5 3.8 3.7 7.2 7.1 7.6v-19.6h-1.9l-.1-.1c-.8-1.2-2.1-2-3.5-2.1l-.1 2.8-.3-.1c-.4-.2-.9-.3-1.4-.3l-1.2 1.9h.1l-.2 2.8z"/>
  </g>
  <path class="st2" d="M109.9 154.6c-23.7 1-37.6-11-41.1-35.9-1.9-13.2 2-39.2 20-42.4 1-.2 1.8.4 2.2 1.2l.1.2c1.1 2.7 2.6 5.1 4.7 7.2 1.2 1.3 2.9 2.3 4.9 3 2.4.8 4.6 2 6.6 3.5 3.7 2.9 6.7 7.2 8.1 11.8.6 2.2 1 4.6 1 6.6 0 3-1.1 5.9-2.5 9l-.2.4c-.5 1.2-1.1 2.5-1.6 3.9-2.3 5.8-3 17.1-2 31.1v.1l-.2.3zM89.1 76.8h-.3c-17.6 3.1-21.5 28.8-19.6 41.8 3.4 23.5 16 35.5 37.5 35.5h2.1c-9.9-4.9-17.7-14.2-20.4-24.6-2.8-10.6-.8-21.8 5.4-30.8.9-1.2 2.4-2 4-2 .8 0 1.5.2 2.2.5 3.7 1.9 6.9 4.5 9.8 7.5 1.9 2 2.1 5 .5 7.2-6.5 9-8.6 20.2-5.7 30.9.8 2.9 2.4 6.3 5 10.4-.9-13.6-.2-24.6 2.1-30.3.5-1.4 1.1-2.7 1.6-3.9l.1-.3c1.3-3.1 2.4-5.9 2.4-8.9 0-2-.3-4.3-.9-6.4-1.4-4.5-4.3-8.8-8-11.6-1.9-1.5-4.1-2.6-6.4-3.4-2.1-.7-3.9-1.8-5.1-3.1-2.1-2.2-3.7-4.6-4.8-7.4l-.1-.2c-.2-.5-.8-.9-1.4-.9zm8.8 20.4c-1.5 0-2.8.7-3.6 1.8-6.2 8.9-8.1 19.9-5.4 30.4 2.7 10.2 10.4 19.5 20.3 24.3-2.7-4.2-4.3-7.7-5.1-10.7-2.9-10.8-.7-22.2 5.8-31.3 1.5-2 1.3-4.8-.4-6.6-2.8-3-6-5.5-9.7-7.4-.5-.3-1.2-.5-1.9-.5z"/>
  <g class="st22">
    <path class="st24" d="M109.8 154.5c-10.3-4.8-18.5-14.3-21.3-25-2.8-10.6-.8-21.8 5.4-30.8.9-1.2 2.4-2 4-2 .8 0 1.5.2 2.2.5 3.7 1.9 6.9 4.5 9.8 7.5 1.9 2 2.1 5 .5 7.2-6.5 9-8.6 20.2-5.7 30.9.8 3.1 2.6 6.7 5.5 11.2l-.4.5zM97.9 97.2c-1.5 0-2.8.7-3.6 1.8-6.2 8.9-8.1 19.9-5.4 30.4 2.7 10.2 10.4 19.5 20.3 24.3-2.7-4.2-4.3-7.7-5.1-10.7-2.9-10.8-.7-22.2 5.8-31.3 1.5-2 1.3-4.8-.4-6.6-2.8-3-6-5.5-9.7-7.4-.5-.3-1.2-.5-1.9-.5z"/>
  </g>
</svg>
